# xmcd
#
# Track frame offsets: 
#        150
#        13222
#        23945
#        34457
#        44665
#        55300
#        65725
#        78887
#        91657
#        102207
#        112812
#        122222
#
# Disc length: 1752 seconds
#
# Revision: 3
# Processed by: cddbd v1.5.2PL0 Copyright (c) Steve Scherf et al.
# Submitted via: ExactAudioCopyFreeDBPlugin 1.0
#
DISCID=9e06d60c
DTITLE=Ben E. King - Don't Play That Song!
DYEAR=1962
DGENRE=Soul
TTITLE0=Don't Play That Song (You Lied)
TTITLE1=Ecstasy
TTITLE2=On the Horizon
TTITLE3=Show Me the Way
TTITLE4=Here Comes the Night
TTITLE5=First Taste of Love
TTITLE6=Stand By Me
TTITLE7=Yes
TTITLE8=Young Boy Blues
TTITLE9=The Hermit of Misty Mountain
TTITLE10=I Promise Love
TTITLE11=Brace Youself
EXTD=
EXTT0=
EXTT1=
EXTT2=
EXTT3=
EXTT4=
EXTT5=
EXTT6=
EXTT7=
EXTT8=
EXTT9=
EXTT10=
EXTT11=
PLAYORDER=
